#!OML:ASF G:\JayActor3\Patient Classification 1\Patient 1\Session 5\male.ASF
:FULLY-SPECIFIED
:DEGREES
747
root -5.5157 16.5567 -5.78686 -400.04 87.1701 -425.345
lowerback 27.4527 -0.796849 0.792118
upperback 5.39085 -0.439714 -0.648056
thorax -9.1899 -0.0584914 -1.05834
lowerneck 6.42652 0.120549 0.203677
upperneck -18.1642 1.02683 3.08637
head -6.59513 0.363523 0.860731
rclavicle 7.95139e-015 7.55382e-015
rhumerus -27.4136 2.17708 -88.1102
rradius 34.1015
rwrist -2.43969
rhand -20.5323 -6.49846
rfingers 7.12502
rthumb 5.82587 -36.3984
lclavicle 7.95139e-015 7.55382e-015
lhumerus -28.2976 -7.24912 86.1071
lradius 34.2202
lwrist 22.9048
lhand -19.0851 10.5237
lfingers 7.12502
lthumb 7.22305 40.3804
rfemur -54.6988 1.37029 20.4216
rtibia 83.0319
rfoot -10.468 -4.24508
rtoes -22.4374
lfemur -53.1196 8.64025 -28.9189
ltibia 36.3534
lfoot -9.16032 0.698245
ltoes 6.98382
748
root -5.61175 16.5505 -5.77758 -400.044 87.2141 -425.192
lowerback 27.4487 -0.798993 0.785851
upperback 5.41525 -0.444301 -0.67024
thorax -9.16056 -0.0595209 -1.07799
lowerneck 6.40821 0.114752 0.190489
upperneck -18.1088 1.01334 3.08512
head -6.57399 0.358012 0.863466
rclavicle -1.51076e-014 -9.54166e-015
rhumerus -27.4383 2.1612 -88.0685
rradius 34.0693
rwrist -2.36177
rhand -20.6108 -6.51196
rfingers 7.12502
rthumb 5.75015 -36.4139
lclavicle -1.51076e-014 -9.54166e-015
lhumerus -28.3205 -7.18864 86.1077
lradius 34.1457
lwrist 22.8776
lhand -19.1297 10.5687
lfingers 7.12502
lthumb 7.17993 40.4269
rfemur -53.6855 1.2965 20.5509
rtibia 82.8904
rfoot -10.3631 -3.645
rtoes -22.3758
lfemur -53.2362 8.64349 -28.9527
ltibia 36.1757
lfoot -8.69609 0.571456
ltoes 7.52579
749
root -5.70795 16.5432 -5.76753 -399.863 87.2688 -424.856
lowerback 27.4371 -0.80146 0.76703
upperback 5.43916 -0.453151 -0.694152
thorax -9.12798 -0.0622672 -1.09084
lowerneck 6.39072 0.113801 0.177092
upperneck -18.0652 1.00638 3.07839
head -6.55684 0.356187 0.864003
rclavicle -1.90833e-014 -1.59028e-014
rhumerus -27.4631 2.15517 -88.031
rradius 34.0523
rwrist -2.30856
rhand -20.6141 -6.55458
rfingers 7.12502
rthumb 5.74695 -36.4567
lclavicle -1.90833e-014 -1.59028e-014
lhumerus -28.3482 -7.10645 86.1023
lradius 34.085
lwrist 22.8585
lhand -19.1892 10.6117
lfingers 7.12502
lthumb 7.12253 40.4719
rfemur -52.6813 1.24359 20.6614
rtibia 82.6387
rfoot -10.229 -3.07661
rtoes -22.219
lfemur -53.356 8.65781 -29.0123
ltibia 35.9962
lfoot -8.23618 0.45624
ltoes 7.89654
750
root -5.80462 16.5346 -5.75659 -399.508 87.3346 -424.351
lowerback 27.4163 -0.803906 0.735707
upperback 5.45964 -0.466069 -0.71979
thorax -9.09463 -0.0667782 -1.09698
lowerneck 6.38071 0.117805 0.165793
upperneck -18.0342 1.00646 3.06647
head -6.54513 0.358 0.862014
rclavicle 3.22031e-014 3.73715e-014
rhumerus -27.4905 2.15515 -87.9981
rradius 34.0356
rwrist -2.26653
rhand -20.612 -6.56125
rfingers 7.12502
rthumb 5.74894 -36.4633
lclavicle 3.22031e-014 3.73715e-014
lhumerus -28.3823 -7.00334 86.0914
lradius 34.0391
lwrist 22.854
lhand -19.2624 10.6564
lfingers 7.12502
lthumb 7.05188 40.5189
rfemur -51.6966 1.20831 20.7558
rtibia 82.2779
rfoot -10.0458 -2.55168
rtoes -21.9539
lfemur -53.4847 8.68536 -29.1022
ltibia 35.8106
lfoot -7.77479 0.350887
ltoes 8.04151
751
root -5.90199 16.5247 -5.74474 -399.076 87.4094 -423.777
lowerback 27.3877 -0.806912 0.701107
upperback 5.47372 -0.481484 -0.74778
thorax -9.06465 -0.072686 -1.10299
lowerneck 6.37721 0.121889 0.163758
upperneck -18.0094 1.00726 3.04901
head -6.53651 0.359898 0.856664
rclavicle 1.63003e-014 1.98785e-015
rhumerus -27.526 2.15622 -87.9725
rradius 34.016
rwrist -2.22689
rhand -20.6261 -6.5137
rfingers 7.12502
rthumb 5.73537 -36.4161
lclavicle 1.63003e-014 1.98785e-015
lhumerus -28.4258 -6.89303 86.0755
lradius 34.0092
lwrist 22.8763
lhand -19.3493 10.69
lfingers 7.12502
lthumb 6.96795 40.5554
rfemur -50.7359 1.18655 20.8416
rtibia 81.807
rfoot -9.813 -2.08185
rtoes -21.5621
lfemur -53.6275 8.72784 -29.2185
ltibia 35.6187
lfoot -7.30957 0.241981
ltoes 8.00995
752
root -6.00014 16.5137 -5.73165 -398.767 87.4949 -423.331
lowerback 27.3564 -0.812103 0.665837
upperback 5.48319 -0.50013 -0.775192
thorax -9.03854 -0.0802569 -1.10686
lowerneck 6.38219 0.124467 0.172485
upperneck -17.9907 1.00699 3.02733
head -6.53128 0.360764 0.848264
rclavicle 9.93923e-015 7.55382e-015
rhumerus -27.5673 2.15012 -87.9529
rradius 34.0056
rwrist -2.21156
rhand -20.6227 -6.47574
rfingers 7.12502
rthumb 5.73865 -36.378
lclavicle 9.93923e-015 7.55382e-015
lhumerus -28.4733 -6.78378 86.0575
lradius 33.9926
lwrist 22.9284
lhand -19.4471 10.7164
lfingers 7.12502
lthumb 6.87356 40.5848
rfemur -49.7923 1.17376 20.9287
rtibia 81.2257
rfoot -9.53677 -1.68671
rtoes -21.0341
lfemur -53.7791 8.78478 -29.3554
ltibia 35.4206
lfoot -6.84047 0.118721
ltoes 7.83732
